<svg width="22" height="23" viewBox="0 0 22 23" fill="none" xmlns="http://www.w3.org/2000/svg">
<g id="Group">
<g id="Group_2">
<path id="Vector" d="M17.4864 14.6411C17.4864 14.6383 17.4863 14.6355 17.4863 14.6327L17.4692 5.97162C17.4688 5.90303 17.461 5.83464 17.446 5.76764L17.3889 5.5749L17.3319 5.46145L17.2694 5.39897C17.1912 5.28573 17.0931 5.18757 16.9798 5.10932L16.923 5.05253L16.8549 4.98438L16.7074 4.93867C16.6246 4.91394 16.5388 4.90036 16.4524 4.89833L7.7461 4.89242C7.16653 4.88858 6.69603 5.3553 6.69525 5.93486C6.69523 5.93765 6.69526 5.94044 6.69527 5.94325C6.71024 6.51637 7.17283 6.97896 7.74598 6.99396L12.9177 7.01323C13.1389 7.01599 13.317 7.19755 13.3153 7.41875C13.3146 7.52166 13.2743 7.62012 13.2027 7.69372L4.79043 16.106C4.38164 16.5147 4.38334 17.1792 4.79423 17.5901C5.20512 18.0011 5.86954 18.0028 6.27836 17.5941L6.27846 17.594L14.6907 9.18175C14.8489 9.02798 15.1025 9.03218 15.2571 9.19118C15.3291 9.26516 15.3699 9.36383 15.3712 9.46675L15.3792 14.6271C15.3913 15.2046 15.8581 15.6714 16.4355 15.6835C17.0151 15.6874 17.4856 15.2206 17.4864 14.6411Z" fill="black"/>
</g>
</g>
</svg>
