<svg width="22" height="22" viewBox="0 0 22 22" fill="none" xmlns="http://www.w3.org/2000/svg">
<g id="Group">
<g id="Group_2">
<path id="Vector" d="M17.4864 14.1409C17.4864 14.1381 17.4864 14.1354 17.4864 14.1325L17.4692 5.4715C17.4689 5.40291 17.4611 5.33452 17.446 5.26751L17.3889 5.07478L17.3319 4.96133L17.2695 4.89885C17.1912 4.78561 17.0931 4.68745 16.9798 4.6092L16.923 4.55241L16.8549 4.48426L16.7075 4.43854C16.6246 4.41382 16.5388 4.40024 16.4525 4.3982L7.74611 4.3923C7.16655 4.38846 6.69605 4.85518 6.69526 5.43474C6.69524 5.43753 6.69528 5.44031 6.69529 5.44313C6.71026 6.01625 7.17285 6.47884 7.74599 6.49384L12.9177 6.51311C13.1389 6.51587 13.317 6.69742 13.3153 6.91863C13.3146 7.02154 13.2743 7.12 13.2027 7.1936L4.79044 15.6059C4.38166 16.0146 4.38336 16.6791 4.79425 17.09C5.20514 17.5009 5.86956 17.5027 6.27837 17.094L6.27848 17.0939L14.6908 8.68163C14.8489 8.52786 15.1026 8.53206 15.2572 8.69106C15.3291 8.76504 15.37 8.86371 15.3712 8.96663L15.3792 14.127C15.3913 14.7045 15.8581 15.1713 16.4356 15.1834C17.0151 15.1872 17.4856 14.7205 17.4864 14.1409Z" fill="white"/>
</g>
</g>
</svg>
