<svg width="82" height="82" viewBox="0 0 82 82" fill="none" xmlns="http://www.w3.org/2000/svg">
<g id="add 1">
<g id="Layer 2">
<path id="Vector" d="M40.9999 3.41675C33.5666 3.41675 26.3002 5.62097 20.1197 9.75068C13.9391 13.8804 9.12198 19.7501 6.27738 26.6176C3.43279 33.485 2.68851 41.0418 4.13867 48.3322C5.58884 55.6227 9.1683 62.3194 14.4244 67.5755C19.6805 72.8316 26.3773 76.4111 33.6677 77.8613C40.9582 79.3114 48.5149 78.5672 55.3824 75.7226C62.2498 72.878 68.1195 68.0608 72.2493 61.8803C76.379 55.6997 78.5832 48.4334 78.5832 41.0001C78.5714 31.036 74.608 21.4833 67.5623 14.4376C60.5166 7.39194 50.964 3.4285 40.9999 3.41675ZM58.0832 44.4168H44.4165V58.0834C44.4165 58.9896 44.0566 59.8586 43.4158 60.4994C42.7751 61.1401 41.906 61.5001 40.9999 61.5001C40.0937 61.5001 39.2247 61.1401 38.5839 60.4994C37.9432 59.8586 37.5832 58.9896 37.5832 58.0834V44.4168H23.9165C23.0104 44.4168 22.1413 44.0568 21.5006 43.416C20.8598 42.7753 20.4999 41.9062 20.4999 41.0001C20.4999 40.0939 20.8598 39.2249 21.5006 38.5841C22.1413 37.9434 23.0104 37.5834 23.9165 37.5834H37.5832V23.9167C37.5832 23.0106 37.9432 22.1416 38.5839 21.5008C39.2247 20.8601 40.0937 20.5001 40.9999 20.5001C41.906 20.5001 42.7751 20.8601 43.4158 21.5008C44.0566 22.1416 44.4165 23.0106 44.4165 23.9167V37.5834H58.0832C58.9893 37.5834 59.8584 37.9434 60.4991 38.5841C61.1399 39.2249 61.4999 40.0939 61.4999 41.0001C61.4999 41.9062 61.1399 42.7753 60.4991 43.416C59.8584 44.0568 58.9893 44.4168 58.0832 44.4168Z" fill="black"/>
</g>
</g>
</svg>
