<svg width="28" height="26" viewBox="0 0 28 26" fill="none" xmlns="http://www.w3.org/2000/svg">
<g id="Group">
<path id="Vector" d="M17.8653 11.1046C19.063 12.1205 19.2151 12.2617 19.7422 12.7156C20.1284 12.3843 20.4598 12.083 21.8643 10.9051C24.4422 8.74055 26.3047 7.17764 26.3047 4.86895C26.3047 2.68035 24.6969 0.966064 22.6445 0.966064C21.2659 0.966064 20.351 1.74394 19.7767 2.5362C19.2327 1.74153 18.3483 0.966064 16.9657 0.966064C14.9133 0.966064 13.3063 2.68041 13.3063 4.86895C13.3063 7.23615 15.12 8.775 17.8653 11.1046Z" fill="#F5F5DC"/>
<path id="Vector_2" d="M4.69218 24.591C6.8414 23.1309 9.19302 22.573 11.7524 22.9996L15.854 23.705C17.429 23.9676 18.8727 23.8855 20.1195 23.4754C22.699 22.6157 25.2813 19.9081 25.9657 18.8816C26.9173 17.4543 27.44 15.8957 27.7682 15.141C28.0799 14.4192 28.0799 13.9106 27.7518 13.6153C27.3744 13.2707 26.7346 13.4511 26.2588 13.7137C25.5042 14.1402 24.7024 15.3707 23.8821 16.5519C22.8157 18.0941 20.9892 19.0129 19.1188 19.0129H13.1797V17.3722H15.6406C20.0046 17.3722 21.957 16.5519 21.957 15.7316C21.957 15.0426 20.5953 14.7308 20.1359 14.6324C18.3477 14.2223 14.3117 14.0254 11.5555 12.7949C11.0584 12.5774 10.4949 12.4554 9.89854 12.4504C8.96349 12.4424 7.94729 12.7337 6.97806 13.4839C6.96177 13.4839 6.96177 13.4839 6.94531 13.5004C6.30546 13.9925 5.43046 14.7144 4.24921 15.748C3.24838 16.6339 2.28046 17.7659 0.590564 19.2097L-6.10352e-05 19.7183L4.03593 25.034L4.69218 24.591Z" fill="#F5F5DC"/>
</g>
</svg>
