<svg width="105" height="69" viewBox="0 0 105 69" fill="none" xmlns="http://www.w3.org/2000/svg">
<path id="&#226;&#128;&#156;" d="M0 22.4153C0 19.2966 0.650558 16.3729 1.95168 13.6441C3.12268 10.9153 4.74907 8.5113 6.83086 6.4322C8.78253 4.48305 11.1245 2.92373 13.8569 1.75423C16.5892 0.584747 19.5167 0 22.6394 0C25.7621 0 28.6896 0.584747 31.4219 1.75423C34.1543 2.92373 36.5613 4.48305 38.6431 6.4322C40.5948 8.5113 42.1561 10.9153 43.3271 13.6441C44.4981 16.3729 45.0836 19.2966 45.0836 22.4153C45.0836 27.613 44.2379 32.4209 42.5465 36.839C40.855 41.387 38.5781 45.6102 35.7156 49.5085C32.7231 53.4068 29.3401 56.9802 25.5669 60.2288C21.6636 63.4774 17.6301 66.4011 13.4665 69L6.24535 62.7627C8.71748 60.5537 10.9944 57.7599 13.0762 54.3814C15.158 51.0028 16.5242 47.6243 17.1747 44.2458C12.2305 43.0763 8.13197 40.4124 4.87918 36.2542C1.6264 32.226 0 27.613 0 22.4153ZM59.9164 22.4153C59.9164 19.2966 60.5669 16.3729 61.868 13.6441C63.039 10.9153 64.6654 8.5113 66.7472 6.4322C68.6989 4.48305 71.1059 2.92373 73.9684 1.75423C76.7007 0.584747 79.6283 0 82.7509 0C85.8736 0 88.8011 0.584747 91.5335 1.75423C94.1357 2.92373 96.4777 4.48305 98.5595 6.4322C100.511 8.5113 102.072 10.9153 103.243 13.6441C104.414 16.3729 105 19.2966 105 22.4153C105 27.613 104.154 32.4209 102.463 36.839C100.771 41.387 98.4944 45.6102 95.632 49.5085C92.6394 53.4068 89.2565 56.9802 85.4833 60.2288C81.5799 63.4774 77.5465 66.4011 73.3829 69L66.3569 62.7627C68.6989 60.5537 70.9108 57.7599 72.9926 54.3814C75.0744 51.0028 76.4405 47.6243 77.0911 44.2458C72.1468 43.0763 68.0483 40.4124 64.7955 36.2542C61.5428 32.226 59.9164 27.613 59.9164 22.4153Z" fill="#F5F5DC"/>
</svg>
