<svg width="24" height="24" viewBox="0 0 24 24" fill="none" xmlns="http://www.w3.org/2000/svg">
<g id="dashicons:email-alt">
<path id="Vector" d="M22.8007 17.4V6.60005C22.8007 5.60405 21.9967 4.80005 21.0007 4.80005H4.18867C3.19267 4.80005 2.38867 5.60405 2.38867 6.60005V17.4C2.38867 18.396 3.19267 19.2 4.18867 19.2H21.0007C21.9967 19.2 22.8007 18.396 22.8007 17.4ZM21.2287 6.46805C21.6247 6.86405 21.4087 7.27205 21.1927 7.47605L16.3207 11.94L21.0007 16.812C21.1447 16.98 21.2407 17.244 21.0727 17.424C20.9167 17.616 20.5567 17.604 20.4007 17.484L15.1567 13.008L12.5887 15.348L10.0327 13.008L4.78867 17.484C4.63267 17.604 4.27267 17.616 4.11667 17.424C3.94867 17.244 4.04467 16.98 4.18867 16.812L8.86867 11.94L3.99667 7.47605C3.78067 7.27205 3.56467 6.86405 3.96067 6.46805C4.35667 6.07205 4.76467 6.26405 5.10067 6.55205L12.5887 12.6L20.0887 6.55205C20.4247 6.26405 20.8327 6.07205 21.2287 6.46805Z" fill="#333333"/>
</g>
</svg>
