<svg width="28" height="28" viewBox="0 0 28 28" fill="none" xmlns="http://www.w3.org/2000/svg">
<g id="Expertise">
<path id="Vector" d="M9.81748 18.165C8.45831 19.2325 7.58331 20.8892 7.58331 22.75V24.5H4.08331C3.11498 24.5 2.33331 23.7183 2.33331 22.75V21.5833C2.33331 19.3258 4.15915 17.5 6.41665 17.5H7.58331C8.41165 17.5 9.17581 17.745 9.81748 18.165Z" fill="#F5F5DC"/>
<path id="Vector_2" d="M21 17.5C22.4497 17.5 23.625 16.3247 23.625 14.875C23.625 13.4253 22.4497 12.25 21 12.25C19.5503 12.25 18.375 13.4253 18.375 14.875C18.375 16.3247 19.5503 17.5 21 17.5Z" fill="#F5F5DC"/>
<path id="Vector_3" d="M7 17.5C8.44975 17.5 9.625 16.3247 9.625 14.875C9.625 13.4253 8.44975 12.25 7 12.25C5.55025 12.25 4.375 13.4253 4.375 14.875C4.375 16.3247 5.55025 17.5 7 17.5Z" fill="#F5F5DC"/>
<path id="Vector_4" d="M25.6667 21.5833V22.75C25.6667 23.7183 24.885 24.5 23.9167 24.5H20.4167V22.75C20.4167 20.8892 19.5417 19.2325 18.1825 18.165C18.8242 17.745 19.5883 17.5 20.4167 17.5H21.5833C23.8408 17.5 25.6667 19.3258 25.6667 21.5833Z" fill="#F5F5DC"/>
<path id="Vector_5" d="M14 18.0833C15.7719 18.0833 17.2084 16.6469 17.2084 14.875C17.2084 13.103 15.7719 11.6666 14 11.6666C12.2281 11.6666 10.7917 13.103 10.7917 14.875C10.7917 16.6469 12.2281 18.0833 14 18.0833Z" fill="#F5F5DC"/>
<path id="Vector_6" d="M14.5833 18.0834H13.4167C10.8436 18.0834 8.75 20.177 8.75 22.75V24.5C8.75 25.4649 9.53517 26.25 10.5 26.25H17.5C18.4648 26.25 19.25 25.4649 19.25 24.5V22.75C19.25 20.177 17.1564 18.0834 14.5833 18.0834Z" fill="#F5F5DC"/>
<path id="Vector_7" d="M22.4584 9.73238L21.0508 10.2329C20.6512 10.3746 20.2341 10.0719 20.2458 9.6478L20.2866 8.15446L19.3754 6.9703C19.117 6.6343 19.2763 6.14371 19.6829 6.02355L21.1161 5.60121L21.9608 4.36863C22.2005 4.01921 22.7162 4.01921 22.9559 4.36863L23.8006 5.60121L25.2339 6.02355C25.6404 6.14313 25.7997 6.6343 25.5413 6.9703L24.6301 8.15446L24.6709 9.6478C24.6826 10.0713 24.2649 10.3746 23.8659 10.2329L22.4584 9.73238Z" fill="#F5F5DC"/>
<path id="Vector_8" d="M5.54167 9.73238L4.13409 10.2329C3.73451 10.3746 3.31742 10.0719 3.32909 9.6478L3.36992 8.15446L2.45876 6.9703C2.20034 6.6343 2.35959 6.14371 2.76617 6.02355L4.19942 5.60121L5.04409 4.36863C5.28384 4.01921 5.79951 4.01921 6.03926 4.36863L6.88392 5.60121L8.31717 6.02355C8.72376 6.14313 8.88301 6.6343 8.62459 6.9703L7.71342 8.15446L7.75426 9.6478C7.76592 10.0713 7.34826 10.3746 6.94926 10.2329L5.54167 9.73238Z" fill="#F5F5DC"/>
<path id="Vector_9" d="M14 8.41983L12.3311 9.01308C11.8574 9.18166 11.3628 8.82175 11.3768 8.3195L11.4252 6.54908L10.3448 5.145C10.0386 4.74658 10.2276 4.165 10.7094 4.02266L12.4087 3.52158L13.4103 2.06033C13.6943 1.64558 14.3063 1.64558 14.5903 2.06033L15.5919 3.52158L17.2912 4.02266C17.773 4.165 17.962 4.74658 17.6558 5.145L16.5754 6.54908L16.6238 8.3195C16.6378 8.82175 16.1426 9.18166 15.6695 9.01308L14 8.41983Z" fill="#F5F5DC"/>
</g>
</svg>
