<svg width="105" height="69" viewBox="0 0 105 69" fill="none" xmlns="http://www.w3.org/2000/svg">
<path id="&#226;&#128;&#156;" d="M105 46.5847C105 49.7034 104.349 52.6271 103.048 55.3559C101.877 58.0847 100.251 60.4887 98.1691 62.5678C96.2175 64.517 93.8755 66.0763 91.1431 67.2458C88.4108 68.4153 85.4833 69 82.3606 69C79.2379 69 76.3104 68.4153 73.5781 67.2458C70.8457 66.0763 68.4387 64.517 66.3569 62.5678C64.4052 60.4887 62.8439 58.0847 61.6729 55.3559C60.5019 52.6271 59.9164 49.7034 59.9164 46.5847C59.9164 41.387 60.7621 36.5791 62.4535 32.161C64.145 27.613 66.4219 23.3898 69.2844 19.4915C72.2769 15.5932 75.6599 12.0198 79.4331 8.77119C83.3364 5.5226 87.3699 2.59887 91.5335 0L98.7546 6.23729C96.2825 8.44633 94.0056 11.2401 91.9238 14.6186C89.842 17.9972 88.4758 21.3757 87.8253 24.7542C92.7695 25.9237 96.868 28.5876 100.121 32.7458C103.374 36.774 105 41.387 105 46.5847ZM45.0836 46.5847C45.0836 49.7034 44.4331 52.6271 43.132 55.3559C41.961 58.0847 40.3346 60.4887 38.2528 62.5678C36.3011 64.517 33.8941 66.0763 31.0316 67.2458C28.2993 68.4153 25.3717 69 22.2491 69C19.1264 69 16.1989 68.4153 13.4665 67.2458C10.8643 66.0763 8.5223 64.517 6.44052 62.5678C4.48885 60.4887 2.92751 58.0847 1.75651 55.3559C0.585502 52.6271 0 49.7034 0 46.5847C0 41.387 0.845725 36.5791 2.53717 32.161C4.22862 27.613 6.50558 23.3898 9.36803 19.4915C12.3606 15.5932 15.7435 12.0198 19.5167 8.77119C23.4201 5.5226 27.4535 2.59887 31.6171 0L38.6431 6.23729C36.3011 8.44633 34.0892 11.2401 32.0074 14.6186C29.9256 17.9972 28.5595 21.3757 27.9089 24.7542C32.8532 25.9237 36.9517 28.5876 40.2045 32.7458C43.4572 36.774 45.0836 41.387 45.0836 46.5847Z" fill="#F5F5DC"/>
</svg>
