<svg width="29" height="28" viewBox="0 0 29 28" fill="none" xmlns="http://www.w3.org/2000/svg">
<g id="Phone">
<path id="Vector" d="M18.0569 16.906L17.6019 17.359C17.6019 17.359 16.5189 18.435 13.5639 15.497C10.6089 12.559 11.6919 11.483 11.6919 11.483L11.9779 11.197C12.6849 10.495 12.7519 9.36698 12.1349 8.54298L10.8749 6.85998C10.1109 5.83998 8.63586 5.70498 7.76086 6.57498L6.19086 8.13498C5.75786 8.56698 5.46786 9.12498 5.50286 9.74498C5.59286 11.332 6.31086 14.745 10.3149 18.727C14.5619 22.949 18.5469 23.117 20.1759 22.965C20.6919 22.917 21.1399 22.655 21.5009 22.295L22.9209 20.883C23.8809 19.93 23.6109 18.295 22.3829 17.628L20.4729 16.589C19.6669 16.152 18.6869 16.28 18.0569 16.906Z" fill="black"/>
</g>
</svg>
