<svg width="58" height="49" viewBox="0 0 58 49" fill="none" xmlns="http://www.w3.org/2000/svg">
<path id="&#226;&#128;&#156;" d="M58 6.35186C52.755 7.31975 48.7298 9.61852 45.9243 13.2481C43.1188 16.8778 41.5941 21.2333 41.3502 26.3148C41.96 26.0728 42.6309 25.8914 43.3628 25.7704C44.0946 25.5284 44.8875 25.4074 45.7413 25.4074C49.2787 25.4074 52.0231 26.4963 53.9748 28.6741C56.0484 30.8519 57.0852 33.5741 57.0852 36.8407C57.0852 40.4704 55.9874 43.4346 53.7918 45.7333C51.5962 47.9111 48.7298 49 45.1924 49C41.6551 49 38.6667 47.7296 36.2271 45.1889C33.9096 42.6481 32.7508 38.837 32.7508 33.7556C32.7508 26.6173 33.7876 20.6284 35.8612 15.7889C37.9348 10.9494 40.8622 7.25926 44.6435 4.71852C48.5468 2.05679 52.999 0.483952 58 0V6.35186ZM25.4322 6.35186C20.3091 7.31975 16.2839 9.61852 13.3565 13.2481C10.551 16.8778 9.02629 21.2333 8.78233 26.3148C9.39222 26.0728 10.0631 25.8914 10.795 25.7704C11.6488 25.5284 12.5026 25.4074 13.3565 25.4074C16.7718 25.4074 19.4553 26.4963 21.4069 28.6741C23.3586 30.8519 24.3344 33.5741 24.3344 36.8407C24.3344 40.4704 23.2366 43.4346 21.041 45.7333C18.9674 47.9111 16.1619 49 12.6246 49C9.08728 49 6.09884 47.7296 3.65931 45.1889C1.21977 42.6481 0 38.837 0 33.7556C0 26.6173 1.0368 20.6284 3.11041 15.7889C5.30599 10.9494 8.29443 7.25926 12.0757 4.71852C15.857 2.05679 20.3091 0.483952 25.4322 0V6.35186Z" fill="#ADD8E6"/>
</svg>
