<svg width="39" height="33" viewBox="0 0 39 33" fill="none" xmlns="http://www.w3.org/2000/svg">
<g id="Group">
<g id="Group_2">
<path id="Vector" d="M25.0073 31.3526C25.0117 31.3483 25.0159 31.344 25.0203 31.3396L38.3559 17.9511C38.4612 17.8448 38.5546 17.7272 38.6348 17.6006L38.844 17.2151L38.9312 16.9523V16.7595C38.9852 16.4641 38.9852 16.1612 38.9312 15.8657V15.6905V15.4802L38.7743 15.1823C38.6846 15.0163 38.5732 14.863 38.4431 14.7266L25.0203 1.28556C24.132 0.385502 22.6861 0.37967 21.7908 1.27259C21.7864 1.27686 21.7822 1.28121 21.7779 1.28556C20.9168 2.19286 20.9168 3.62021 21.7779 4.52758L29.727 12.5361C30.0639 12.8816 30.0586 13.4365 29.7148 13.7752C29.5549 13.9329 29.3408 14.0226 29.1168 14.0257L3.16025 14.0257C1.899 14.0256 0.876523 15.0533 0.876441 16.3212C0.876359 17.5891 1.89868 18.6169 3.15992 18.6171H3.16025L29.1168 18.6171C29.5981 18.6239 29.9829 19.0217 29.9761 19.5055C29.9729 19.7306 29.8838 19.9459 29.727 20.1066L21.7779 28.0802C20.9057 28.9898 20.9057 30.4301 21.7779 31.3397C22.6661 32.2398 24.112 32.2456 25.0073 31.3526Z" fill="#101010"/>
</g>
</g>
</svg>
